<svg width="174" height="54" viewBox="0 0 174 54" fill="none" xmlns="http://www.w3.org/2000/svg">
<path fill-rule="evenodd" clip-rule="evenodd" d="M0 52.859H8.58821V1.14233H0V52.859Z" fill="#0A0D0D"/>
<path fill-rule="evenodd" clip-rule="evenodd" d="M73.9521 52.859H82.5414V1.14233H73.9521V52.859Z" fill="#0A0D0D"/>
<path fill-rule="evenodd" clip-rule="evenodd" d="M110.892 52.8573H119.481V1.14062H110.892V52.8573Z" fill="#0A0D0D"/>
<path fill-rule="evenodd" clip-rule="evenodd" d="M91.3523 1.14185H82.542L102.046 52.8586H110.893L91.3523 1.14185Z" fill="#0A0D0D"/>
<path fill-rule="evenodd" clip-rule="evenodd" d="M156.684 1.14185H148.218L158.631 34.6359H137.804L137.877 34.3975L148.218 1.14185H139.753L123.637 52.8586H132.14L135.428 42.2819H161.007L161.048 42.4114L164.296 52.8586H172.8L156.684 1.14185Z" fill="#0A0D0D"/>
<path fill-rule="evenodd" clip-rule="evenodd" d="M157.047 1H148.581L158.995 34.4941H138.167L138.24 34.2556L148.581 1H140.116L124 52.7167H132.503L135.791 42.1401H161.37L161.411 42.2696L164.66 52.7167H173.163L157.047 1Z" fill="#0A0D0D"/>
<path fill-rule="evenodd" clip-rule="evenodd" d="M41.2346 45.5945C30.7008 45.5945 23.3456 37.9486 23.3456 27.0007C23.3456 16.0497 30.7008 8.3994 41.2346 8.3994C51.7652 8.3994 59.1214 16.0497 59.1214 27.0007C59.1214 37.9486 51.7652 45.5945 41.2346 45.5945ZM41.2348 0C25.6305 0 14.3037 11.3557 14.3037 27.0005C14.3037 42.6442 25.6305 53.9999 41.2348 53.9999C56.881 53.9999 68.2378 42.6442 68.2378 27.0005C68.2378 11.3557 56.881 0 41.2348 0Z" fill="#0A0D0D"/>
</svg>
